# xmcd
#
# Track frame offsets:
# 150
# 15457
# 25535
# 40580
# 53945
# 63610
# 80697
# 93755
# 108335
# 121852
# 138350
# 152627
# 161747
#
# Disc length: 2468 seconds
#
#
# Revision: 0
# Processed by: cddbd v1.5.2PL0 Copyright (c) Steve Scherf et al.
# Submitted via: FreeRIP 2.944 
#
DISCID=9809a20d
DTITLE=Passoca - Sabiacidade
DYEAR=1996
DGENRE=Country
TTITLE0=Sabiacidade
TTITLE1=O Relógio da Paulista
TTITLE2=Costume Paulista
TTITLE3=Seu Barbosa
TTITLE4=O Trabalho
TTITLE5=Perfil de São Paulo
TTITLE6=O Pombal
TTITLE7=Sonora Garoa
TTITLE8=Curió
TTITLE9=O Trenzinho do Caipira
TTITLE10=Maracangalha
TTITLE11=Pedacinho
TTITLE12=Moda de Botucatu
EXTD=
EXTT0=
EXTT1=
EXTT2=
EXTT3=
EXTT4=
EXTT5=
EXTT6=
EXTT7=
EXTT8=
EXTT9=
EXTT10=
EXTT11=
EXTT12=
PLAYORDER=
